<svg xmlns="http://www.w3.org/2000/svg" width="240" height="240"><path d="M94.286 20a74.286 74.286 0 0 1 74.285 74.286c0 18.4-6.742 35.314-17.828 48.343l3.086 3.085h9.028L220 202.857 202.857 220l-57.143-57.143v-9.028l-3.085-3.086c-13.029 11.086-29.943 17.828-48.343 17.828A74.286 74.286 0 0 1 20 94.286 74.286 74.286 0 0 1 94.286 20m0 22.857c-28.572 0-51.429 22.857-51.429 51.429 0 28.571 22.857 51.428 51.429 51.428 28.571 0 51.428-22.857 51.428-51.428 0-28.572-22.857-51.429-51.428-51.429z" style="fill:#fff;stroke-width:11.4285717"/></svg>