<svg xmlns="http://www.w3.org/2000/svg" width="240" height="240"><path d="M175.556 175.556H64.444V64.444h111.112M220 108.89V86.667h-22.222V64.444c0-12.333-10-22.222-22.222-22.222h-22.223V20h-22.222v22.222H108.89V20H86.667v22.222H64.444a22.145 22.145 0 0 0-22.222 22.222v22.223H20v22.222h22.222v22.222H20v22.222h22.222v22.223a22.222 22.222 0 0 0 22.222 22.222h22.223V220h22.222v-22.222h22.222V220h22.222v-22.222h22.223a22.222 22.222 0 0 0 22.222-22.222v-22.223H220v-22.222h-22.222V108.89m-66.668 22.22h-22.22v-22.22h22.222m22.222-22.222H86.667v66.666h66.666z" style="fill:#fff;stroke-width:11.11111164"/></svg>