<?xml version="1.0" encoding="UTF-8" standalone="no"?>
<svg
   height="512pt"
   viewBox="-21 0 512 512"
   width="512pt"
   version="1.1"
   id="svg8"
   sodipodi:docname="notifs-fill.svg"
   inkscape:version="1.1.1 (3bf5ae0d25, 2021-09-20)"
   xmlns:inkscape="http://www.inkscape.org/namespaces/inkscape"
   xmlns:sodipodi="http://sodipodi.sourceforge.net/DTD/sodipodi-0.dtd"
   xmlns="http://www.w3.org/2000/svg"
   xmlns:svg="http://www.w3.org/2000/svg">
  <defs
     id="defs12">
    <linearGradient
       id="linearGradient2948"
       inkscape:swatch="solid">
      <stop
         style="stop-color:#b2bfd9;stop-opacity:1;"
         offset="0"
         id="stop2946" />
    </linearGradient>
  </defs>
  <sodipodi:namedview
     id="namedview10"
     pagecolor="#ffffff"
     bordercolor="#666666"
     borderopacity="1.0"
     inkscape:pageshadow="2"
     inkscape:pageopacity="0.0"
     inkscape:pagecheckerboard="0"
     inkscape:document-units="pt"
     showgrid="false"
     inkscape:zoom="1.1381836"
     inkscape:cx="341.33333"
     inkscape:cy="341.33333"
     inkscape:window-width="944"
     inkscape:window-height="998"
     inkscape:window-x="1928"
     inkscape:window-y="8"
     inkscape:window-maximized="0"
     inkscape:current-layer="svg8" />
  <path
     fill="#ffffff"
     d="m213.34375 512c38.636719 0 70.957031-27.542969 78.378906-64h-156.757812c7.425781 36.457031 39.746094 64 78.378906 64zm0 0"
     id="path2" />
  <path
     fill="#ffffff"
     d="m362.933594 255.980469c-.085938 0-.171875.019531-.257813.019531-82.324219 0-149.332031-66.988281-149.332031-149.332031 0-22.636719 5.207031-44.035157 14.273438-63.277344-4.695313-.445313-9.453126-.722656-14.273438-.722656-82.472656 0-149.332031 66.855469-149.332031 149.332031v59.476562c0 42.21875-18.496094 82.070313-50.945313 109.503907-10.816406 9.238281-15.617187 23.957031-11.734375 38.316406 4.523438 16.703125 21.035157 27.371094 38.359375 27.371094h347.199219c18.175781 0 35.308594-11.777344 38.996094-29.589844 2.859375-13.78125-2.046875-27.542969-12.734375-36.523437-31.019532-26.003907-48.960938-64.214844-50.21875-104.574219zm0 0"
     id="path4" />
  <path
     fill="#ff0000"
     d="m469.34375 106.667969c0 58.910156-47.753906 106.664062-106.667969 106.664062-58.910156 0-106.664062-47.753906-106.664062-106.664062 0-58.910157 47.753906-106.667969 106.664062-106.667969 58.914063 0 106.667969 47.757812 106.667969 106.667969zm0 0"
     id="path6"
     style="fill:#0badff;fill-opacity:1;stroke:#1b1d24;stroke-opacity:1;stroke-width:7.2;stroke-miterlimit:4;stroke-dasharray:none" />
</svg>
