<svg xmlns="http://www.w3.org/2000/svg" width="240" height="240"><path d="M22 40v-6h-8v7.33A2.67 2.67 0 0 0 16.67 44h14.67a2.67 2.67 0 0 0 2.67-2.67V34h-8.8zm9.33-32H28V4h-8v4h-3.33C15.19 8 14 9.19 14 10.67V34h8v-5h-4l8-15v11h4l-4.8 9H34V10.67C34 9.19 32.81 8 31.33 8Z" style="fill:#fff;fill-opacity:.4" transform="matrix(5 0 0 5 -.025 0)"/><path style="fill:#fff;fill-opacity:1" d="M22 232v-6h-8v7.33a2.67 2.67 0 0 0 2.67 2.67h14.67a2.67 2.67 0 0 0 2.67-2.67V226h-8.8z" transform="matrix(5 0 0 5 -.025 -960)"/></svg>