<?xml version="1.0" encoding="UTF-8" standalone="no"?>
<svg
   width="256px"
   height="218px"
   viewBox="0 0 256 218"
   version="1.1"
   preserveAspectRatio="xMidYMid"
   id="svg14"
   sodipodi:docname="dropbox-x.svg"
   inkscape:version="1.1.1 (3bf5ae0d25, 2021-09-20)"
   xmlns:inkscape="http://www.inkscape.org/namespaces/inkscape"
   xmlns:sodipodi="http://sodipodi.sourceforge.net/DTD/sodipodi-0.dtd"
   xmlns="http://www.w3.org/2000/svg"
   xmlns:svg="http://www.w3.org/2000/svg">
  <defs
     id="defs18" />
  <sodipodi:namedview
     id="namedview16"
     pagecolor="#ffffff"
     bordercolor="#666666"
     borderopacity="1.0"
     inkscape:pageshadow="2"
     inkscape:pageopacity="0.0"
     inkscape:pagecheckerboard="0"
     showgrid="false"
     inkscape:zoom="1.9816514"
     inkscape:cx="161.22917"
     inkscape:cy="135.99769"
     inkscape:window-width="1918"
     inkscape:window-height="1057"
     inkscape:window-x="1920"
     inkscape:window-y="0"
     inkscape:window-maximized="1"
     inkscape:current-layer="svg14" />
  <g
     fill="#f4f4f7"
     id="g12">
    <polygon
       points="63.9945638 0 0 40.7712563 63.9945638 81.5425125 128 40.7712563"
       id="polygon2" />
    <polygon
       points="192.000442 0 128 40.7750015 192.000442 81.5500031 256.000885 40.7750015"
       id="polygon4" />
    <polygon
       points="0 122.321259 63.9945638 163.092516 128 122.321259 63.9945638 81.5500031"
       id="polygon6" />
    <polygon
       points="192 81.5500031 128 122.324723 192 163.099442 256 122.324723"
       id="polygon8" />
    <polygon
       points="64 176.771256 128.005436 217.542513 192 176.771256 128.005436 136"
       id="polygon10" />
  </g>
  <path
     style="fill:#f4f4f7;fill-opacity:1;stroke:#1b1d24;stroke-width:2.209;stroke-linecap:round;stroke-linejoin:bevel;stroke-miterlimit:10.2;paint-order:stroke markers fill"
     id="path1191"
     sodipodi:type="arc"
     sodipodi:cx="192"
     sodipodi:cy="176.77126"
     sodipodi:rx="38.314644"
     sodipodi:ry="31.990314"
     sodipodi:start="0"
     sodipodi:end="6.2802058"
     sodipodi:arc-type="slice"
     d="m 230.31464,176.77126 a 38.314644,31.990314 0 0 1 -38.2861,31.9903 38.314644,31.990314 0 0 1 -38.34314,-31.94265 38.314644,31.990314 0 0 1 38.22898,-32.03789 38.314644,31.990314 0 0 1 38.40009,31.89492 L 192,176.77126 Z" />
  <path
     style="fill:none;stroke:#000000;stroke-width:5.11692;stroke-linecap:round;stroke-linejoin:miter;stroke-miterlimit:4;stroke-dasharray:none;stroke-opacity:1"
     d="m 177.02158,191.98342 34.25637,-27.5674"
     id="path1339" />
  <path
     style="fill:none;stroke:#000000;stroke-width:4.90792;stroke-linecap:round;stroke-linejoin:miter;stroke-miterlimit:4;stroke-dasharray:none;stroke-opacity:1"
     d="m 177.14891,165.90327 34.30889,25.32257"
     id="path1339-9" />
</svg>
