<svg xmlns="http://www.w3.org/2000/svg" width="48" height="48"><path style="fill:#fff;fill-opacity:.4" d="m24.24 224 1.35-1.68C25.1 221.96 20.26 218 13 218S.9 221.96.42 222.32l12.57 15.66.01.02.01-.01 6.99-8.71V224Z" transform="translate(.72 -384.295) scale(1.79077)"/><path style="fill:#fff;fill-opacity:1" d="M20 229.28v-4.57c-1.65-.84-4.06-1.71-7-1.71-5.44 0-9.07 2.97-9.44 3.24l9.43 11.75.01.01.01-.01zm2 6.72h2v2h-2zm0-10h2v8h-2z" transform="translate(.72 -384.295) scale(1.79077)"/><path style="fill:none" d="M0 216h26v24H0Z" transform="translate(.72 -384.295) scale(1.79077)"/></svg>