<svg xmlns="http://www.w3.org/2000/svg" width="48" height="48"><path style="fill:none" d="M0 216h26v24H0Z" transform="translate(.72 -384.295) scale(1.79077)"/><path style="fill:#fff;fill-opacity:.4" d="m24.24 224 1.35-1.68C25.1 221.96 20.26 218 13 218S.9 221.96.42 222.32l12.57 15.66.01.02.01-.01 6.99-8.71V224Z" transform="translate(.72 -384.295) scale(1.79077)"/><path style="fill:#fff;fill-opacity:1" d="m5.45 228.59 7.54 9.4.01.01.01-.01 6.99-8.71v-1.09c-1.07-.73-3.59-2.19-7-2.19-4.36 0-7.26 2.38-7.55 2.59zM22 226v8h2v-8zm0 12h2v-2h-2z" transform="translate(.72 -384.295) scale(1.79077)"/></svg>