<svg xmlns="http://www.w3.org/2000/svg" width="240" height="240"><path d="M120 84.633A35.367 35.367 0 0 0 84.633 120 35.367 35.367 0 0 0 120 155.367 35.367 35.367 0 0 0 155.367 120 35.367 35.367 0 0 0 120 84.633m0 88.417A53.05 53.05 0 0 1 66.95 120 53.05 53.05 0 0 1 120 66.95 53.05 53.05 0 0 1 173.05 120 53.05 53.05 0 0 1 120 173.05m70.734-82.316V49.266h-41.468L120 20 90.734 49.266H49.266v41.468L20 120l29.266 29.266v41.468h41.468L120 220l29.266-29.266h41.468v-41.468L220 120Z" style="fill:#fff;stroke-width:8.84173298"/></svg>