<svg xmlns="http://www.w3.org/2000/svg" width="240" height="240"><path d="M60 20h120a20 20 0 0 1 20 20v160a20 20 0 0 1-20 20H60a20 20 0 0 1-20-20V40a20 20 0 0 1 20-20m60 20a60 60 0 0 0-60 60c0 33.1 26.9 60 61 60l-8.8-22.3c-2.7-4.8-1.1-10.9 3.7-13.7l8.6-5c4.8-2.7 10.9-1.1 13.7 3.7l19.2 24.2c13.8-11 22.6-27.9 22.6-46.9a60 60 0 0 0-60-60m0 50a10 10 0 0 1 10 10 10 10 0 0 1-10 10 10 10 0 0 1-10-10 10 10 0 0 1 10-10m-50 90a10 10 0 0 0-10 10 10 10 0 0 0 10 10 10 10 0 0 0 10-10 10 10 0 0 0-10-10m50.9-47.3 24.9 63.1 25.9-15-42.2-53.1z" style="fill:#fff;stroke-width:10"/></svg>