<svg xmlns="http://www.w3.org/2000/svg" width="240" height="240"><path d="M120 172.381a19.048 19.048 0 0 0 19.048-19.048c0-10.571-8.572-19.047-19.048-19.047a19.048 19.048 0 0 0-19.048 19.047A19.048 19.048 0 0 0 120 172.381m57.143-85.714a19.048 19.048 0 0 1 19.047 19.047v95.238A19.048 19.048 0 0 1 177.143 220H62.857a19.048 19.048 0 0 1-19.047-19.048v-95.238c0-10.571 8.571-19.047 19.047-19.047h9.524V67.619A47.619 47.619 0 0 1 120 20a47.619 47.619 0 0 1 47.619 47.62v19.047h9.524M120 39.047A28.571 28.571 0 0 0 91.429 67.62v19.048h57.142V67.619A28.571 28.571 0 0 0 120 39.048Z" style="fill:#fff;stroke-width:9.52380943"/></svg>