<svg xmlns="http://www.w3.org/2000/svg" width="240" height="240"><path d="M120.41 55.112c21.687 0 42.341 8.261 57.832 23.751 32.013 32.014 32.013 84.681 0 116.695-18.589 19.621-44.406 26.85-69.19 23.752l5.163-20.654c17.555 2.065 36.144-4.13 49.569-17.556 23.752-23.752 23.752-62.994 0-87.779-11.36-11.36-27.883-17.556-43.373-17.556v47.504L68.776 71.635 120.411 20v35.112M61.547 195.558c-26.85-26.85-30.98-68.158-12.392-100.171l15.49 15.49c-11.36 22.72-7.229 51.635 12.393 70.223 5.163 5.164 11.36 9.294 18.588 12.392l-6.196 20.654c-10.327-4.13-19.621-10.327-27.883-18.588Z" style="fill:#fff;stroke-width:10.32693005"/></svg>