<svg xmlns="http://www.w3.org/2000/svg" width="240" height="240"><path d="m29.09 110.91 18.637.908C50 91.182 60.91 73.182 76.818 61.455L66.636 45.818C64.182 41.455 65.455 35.91 70 33.364c4.545-2.455 9.91-1 12.455 3.363l8.454 16.546c8.91-3.818 18.727-6 29.091-6s20.182 2.182 29.09 6l8.455-16.546c2.546-4.363 7.91-5.818 12.455-3.363 4.545 2.545 5.818 8.09 3.364 12.454l-10.182 15.637c15.909 11.727 26.818 29.727 29.09 50.363l18.637-.909A9.09 9.09 0 0 1 220 120a9.09 9.09 0 0 1-9.09 9.09l-18.637-.908c-2.273 20.636-13.182 38.636-29.091 50.363l10.182 15.637c2.454 4.363 1.181 9.909-3.364 12.454-4.545 2.455-9.91 1-12.455-3.363l-8.454-16.546c-8.91 3.818-18.727 6-29.091 6s-20.182-2.182-29.09-6l-8.455 16.546c-2.546 4.363-7.91 5.818-12.455 3.363-4.545-2.545-5.818-8.09-3.364-12.454l10.182-15.637C60.91 166.818 50 148.818 47.728 128.182l-18.637.909A9.09 9.09 0 0 1 20 120a9.09 9.09 0 0 1 9.09-9.09m64.274 3.18c1.181-5.545 4.181-10.454 8.454-14.18l-15.09-23.092c-11.183 8.546-18.819 21.364-20.819 35.91l27.455 1.363M120 92.727c2.91 0 5.636.455 8.182 1.273l12.545-24.455c-6.363-2.636-13.363-4.09-20.727-4.09-7.364 0-14.364 1.454-20.727 4.09L111.818 94A26.59 26.59 0 0 1 120 92.727m26.636 21.364 27.455-1.364c-2-14.545-9.636-27.363-20.818-35.909L138.182 99.91c4.273 3.727 7.273 8.636 8.454 14.182m0 11.818c-1.181 5.546-4.181 10.455-8.454 14.182l15.09 23.09c11.183-8.545 18.819-21.363 20.819-35.908l-27.455-1.364M120 147.273a27.63 27.63 0 0 1-8.273-1.273l-12.454 24.455c6.363 2.636 13.363 4.09 20.727 4.09 7.364 0 14.364-1.454 20.727-4.09L128.273 146a27.624 27.624 0 0 1-8.273 1.273m-26.636-21.364-27.455 1.364c2 14.545 9.636 27.363 20.818 35.909l15.091-23.091c-4.273-3.727-7.273-8.636-8.454-14.182z" style="fill:#fff;stroke-width:9.090909"/></svg>