<svg xmlns="http://www.w3.org/2000/svg" width="48" height="48"><path style="fill:none" d="M19.79 176.46h26v24h-26z" transform="translate(-3.877 -3.877) scale(.23231)"/><path style="fill:#fff;fill-opacity:.4;stroke-width:7.9459672" d="m209.483 87.216 10.727-13.35c-3.894-2.86-42.352-34.326-100.04-34.326-57.687 0-96.146 31.466-99.96 34.327L120.09 198.3l.08.159.08-.08 55.542-69.21V87.217Z" transform="translate(-3.877 -3.877) scale(.23231)"/><path style="fill:#fff;fill-opacity:1;stroke-width:7.9459672" d="m75.196 142.44 44.974 55.94v.08-.08l44.974-56.019c-1.748-1.271-18.99-15.415-44.974-15.415-25.983 0-43.226 14.144-44.974 15.495zm116.488 56.02h15.892v-15.892h-15.892zm0-95.352v63.568h15.892v-63.568z" transform="translate(-3.877 -3.877) scale(.23231)"/></svg>