<svg xmlns="http://www.w3.org/2000/svg" width="48" height="48" viewBox="0 0 4.8 4.8" xml:space="preserve"><path d="M.651.394.397.65l.41.41c-.26.12-.506.27-.735.447.766.96 1.552 1.935 2.328 2.899l.78-.972.664.664.254-.254L.65.394Zm1.747.312a3.78 3.78 0 0 0-.828.097l.34.34a3.44 3.44 0 0 1 .488-.036 3.393 3.393 0 0 1 1.743.49l-.792.987.285.284c.38-.475.768-.956 1.094-1.36a3.797 3.797 0 0 0-2.33-.802Zm-1.288.658 1.785 1.784-.497.62L.651 1.594c.148-.089.301-.165.46-.23Z" style="fill:#fff;fill-opacity:1;stroke-width:.04001505;stroke-linejoin:round"/></svg>